<svg width="232" height="121" viewBox="0 0 232 121" fill="none" xmlns="http://www.w3.org/2000/svg">
<path d="M70.999 42.5127C82.398 42.5127 91.6386 50.6127 91.6387 60.6045C91.6387 70.5963 82.398 78.6963 70.999 78.6963C59.6001 78.6962 50.3594 70.5963 50.3594 60.6045C50.3594 50.6128 59.6002 42.5128 70.999 42.5127ZM71.0176 44.3428C60.7726 44.3429 52.4678 51.6232 52.4678 60.6035C52.4679 69.5838 60.7727 76.8641 71.0176 76.8643C81.2626 76.8643 89.5682 69.5839 89.5684 60.6035C89.5684 51.6231 81.2627 44.3428 71.0176 44.3428Z" fill="white"/>
<path d="M88.2961 58.2293L0 59.1377L43.6299 59.4102L88.7106 59.8644H91.9233C93.1669 59.8644 93.8522 59.5011 93.996 59.4102C97.561 57.1574 99.2122 50.3564 99.5922 47.2376C100.587 36.7 104.774 43.392 106.743 48.0551L119.283 77.0334C121.77 82.6292 123.428 83.907 123.946 83.8464C125.438 84.6458 126.122 77.3059 126.537 73.4906L127.677 64.679C128.817 59.8644 130.648 59.925 131.719 59.8644L196.697 59.4102L231 58.7743L196.697 58.5018L152.756 58.0476H130.89C128.485 58.0476 126.986 62.4685 126.537 64.679L125.086 77.0334C124.589 84.228 121.632 80.0311 120.215 77.0334L117.832 72.1279L109.852 53.3239C106.287 43.4404 103.254 38.6077 102.183 37.4267C101.52 36.6273 100.87 37.0937 100.629 37.4267C100.131 37.8628 98.9013 44.149 98.3486 47.2376C96.6075 55.8856 93.7542 58.1687 92.5451 58.2293H88.2961Z" fill="#F90000" stroke="#F90000" stroke-width="1.31769"/>
<path d="M141.389 60.3295L149.197 80.4575C149.517 81.2682 149.88 81.8122 150.285 82.0895C150.691 82.3455 151.064 82.4842 151.405 82.5055V83.1455C150.979 83.1028 150.456 83.0815 149.837 83.0815C149.219 83.0602 148.6 83.0495 147.981 83.0495C147.149 83.0495 146.371 83.0602 145.645 83.0815C144.92 83.0815 144.333 83.1028 143.885 83.1455V82.5055C144.973 82.4628 145.667 82.2815 145.965 81.9615C146.264 81.6202 146.2 80.9055 145.773 79.8175L139.821 63.9135L140.333 63.4975L134.765 77.9615C134.424 78.8148 134.221 79.5402 134.157 80.1375C134.093 80.7135 134.147 81.1722 134.317 81.5135C134.509 81.8548 134.819 82.1002 135.245 82.2495C135.693 82.3988 136.248 82.4842 136.909 82.5055V83.1455C136.312 83.1028 135.683 83.0815 135.021 83.0815C134.381 83.0602 133.784 83.0495 133.229 83.0495C132.696 83.0495 132.237 83.0602 131.853 83.0815C131.491 83.0815 131.149 83.1028 130.829 83.1455V82.5055C131.256 82.3988 131.693 82.1535 132.141 81.7695C132.589 81.3642 132.995 80.6815 133.357 79.7215L140.877 60.3295C140.963 60.3295 141.048 60.3295 141.133 60.3295C141.219 60.3295 141.304 60.3295 141.389 60.3295ZM145.293 73.9295V74.5695H135.757L136.077 73.9295H145.293ZM168.56 60.4895C168.474 61.3002 168.41 62.0895 168.368 62.8575C168.346 63.6042 168.336 64.1802 168.336 64.5855C168.336 65.0975 168.346 65.5775 168.368 66.0255C168.389 66.4735 168.41 66.8682 168.432 67.2095H167.696C167.546 65.7162 167.344 64.5428 167.088 63.6895C166.832 62.8148 166.384 62.1855 165.744 61.8015C165.104 61.4175 164.112 61.2255 162.768 61.2255H161.04V79.4335C161.04 80.2868 161.114 80.9268 161.264 81.3535C161.434 81.7802 161.754 82.0682 162.224 82.2175C162.693 82.3668 163.376 82.4628 164.272 82.5055V83.1455C163.717 83.1028 163.013 83.0815 162.16 83.0815C161.306 83.0602 160.442 83.0495 159.568 83.0495C158.608 83.0495 157.701 83.0602 156.848 83.0815C156.016 83.0815 155.344 83.1028 154.832 83.1455V82.5055C155.728 82.4628 156.41 82.3668 156.88 82.2175C157.349 82.0682 157.658 81.7802 157.808 81.3535C157.978 80.9268 158.064 80.2868 158.064 79.4335V61.2255H156.336C155.013 61.2255 154.021 61.4175 153.36 61.8015C152.72 62.1855 152.272 62.8148 152.016 63.6895C151.76 64.5428 151.557 65.7162 151.408 67.2095H150.672C150.714 66.8682 150.736 66.4735 150.736 66.0255C150.757 65.5775 150.768 65.0975 150.768 64.5855C150.768 64.1802 150.746 63.6042 150.704 62.8575C150.682 62.0895 150.629 61.3002 150.544 60.4895C151.44 60.5108 152.41 60.5322 153.456 60.5535C154.522 60.5748 155.589 60.5855 156.656 60.5855C157.722 60.5855 158.693 60.5855 159.568 60.5855C160.442 60.5855 161.402 60.5855 162.448 60.5855C163.514 60.5855 164.581 60.5748 165.648 60.5535C166.714 60.5322 167.685 60.5108 168.56 60.4895ZM190.451 60.4895V61.1295C189.725 61.1508 189.171 61.2575 188.787 61.4495C188.424 61.6415 188.179 61.9508 188.051 62.3775C187.923 62.8042 187.859 63.4122 187.859 64.2015V73.8335C187.859 75.3268 187.763 76.6282 187.571 77.7375C187.379 78.8468 187.037 79.8068 186.547 80.6175C186.013 81.5135 185.235 82.2388 184.211 82.7935C183.187 83.3268 182.013 83.5935 180.691 83.5935C179.667 83.5935 178.685 83.4655 177.747 83.2095C176.829 82.9748 176.019 82.5268 175.315 81.8655C174.696 81.2682 174.205 80.6388 173.843 79.9775C173.501 79.3162 173.267 78.5055 173.139 77.5455C173.011 76.5855 172.947 75.3802 172.947 73.9295V63.8815C172.947 63.0922 172.883 62.5162 172.755 62.1535C172.627 61.7695 172.371 61.5135 171.987 61.3855C171.624 61.2362 171.08 61.1508 170.355 61.1295V60.4895C170.803 60.5108 171.389 60.5322 172.115 60.5535C172.84 60.5748 173.619 60.5855 174.451 60.5855C175.197 60.5855 175.933 60.5748 176.659 60.5535C177.405 60.5322 178.024 60.5108 178.515 60.4895V61.1295C177.789 61.1508 177.235 61.2362 176.851 61.3855C176.488 61.5135 176.243 61.7695 176.115 62.1535C175.987 62.5162 175.923 63.0922 175.923 63.8815V74.4735C175.923 75.5615 175.976 76.5962 176.083 77.5775C176.189 78.5375 176.403 79.3908 176.723 80.1375C177.064 80.8628 177.576 81.4388 178.259 81.8655C178.941 82.2708 179.848 82.4735 180.979 82.4735C182.6 82.4735 183.848 82.1215 184.723 81.4175C185.619 80.6922 186.237 79.7002 186.579 78.4415C186.941 77.1828 187.123 75.7642 187.123 74.1855V64.2015C187.123 63.4122 187.027 62.8042 186.835 62.3775C186.664 61.9508 186.365 61.6415 185.939 61.4495C185.512 61.2575 184.936 61.1508 184.211 61.1295V60.4895C184.595 60.5108 185.096 60.5322 185.715 60.5535C186.355 60.5748 186.941 60.5855 187.475 60.5855C188.029 60.5855 188.573 60.5748 189.107 60.5535C189.661 60.5322 190.109 60.5108 190.451 60.4895ZM199.495 60.1375C200.562 60.1375 201.373 60.2655 201.927 60.5215C202.482 60.7562 202.973 61.0228 203.399 61.3215C203.655 61.4708 203.858 61.5882 204.007 61.6735C204.178 61.7375 204.338 61.7695 204.487 61.7695C204.701 61.7695 204.85 61.6522 204.935 61.4175C205.042 61.1828 205.127 60.8308 205.191 60.3615H205.927C205.906 60.7242 205.874 61.1615 205.831 61.6735C205.81 62.1642 205.789 62.8255 205.767 63.6575C205.767 64.4682 205.767 65.5455 205.767 66.8895H205.031C204.967 65.8655 204.743 64.8842 204.359 63.9455C203.975 63.0068 203.41 62.2388 202.663 61.6415C201.938 61.0442 200.978 60.7455 199.783 60.7455C198.653 60.7455 197.714 61.0868 196.967 61.7695C196.242 62.4522 195.879 63.3482 195.879 64.4575C195.879 65.4175 196.125 66.2282 196.615 66.8895C197.106 67.5295 197.757 68.1162 198.567 68.6495C199.399 69.1615 200.295 69.7162 201.255 70.3135C202.365 70.9962 203.346 71.6788 204.199 72.3615C205.074 73.0228 205.757 73.7588 206.247 74.5695C206.759 75.3802 207.015 76.3615 207.015 77.5135C207.015 78.8788 206.706 80.0095 206.087 80.9055C205.469 81.8015 204.647 82.4735 203.623 82.9215C202.599 83.3695 201.469 83.5935 200.231 83.5935C199.101 83.5935 198.205 83.4655 197.543 83.2095C196.882 82.9535 196.317 82.6868 195.847 82.4095C195.378 82.1108 195.015 81.9615 194.759 81.9615C194.546 81.9615 194.386 82.0788 194.279 82.3135C194.194 82.5482 194.119 82.9002 194.055 83.3695H193.319C193.362 82.9215 193.383 82.3988 193.383 81.8015C193.405 81.1828 193.415 80.3828 193.415 79.4015C193.437 78.4202 193.447 77.1828 193.447 75.6895H194.183C194.269 76.9695 194.503 78.1642 194.887 79.2735C195.293 80.3828 195.901 81.2788 196.711 81.9615C197.543 82.6228 198.642 82.9535 200.007 82.9535C200.711 82.9535 201.373 82.8148 201.991 82.5375C202.631 82.2388 203.154 81.7802 203.559 81.1615C203.965 80.5215 204.167 79.7002 204.167 78.6975C204.167 77.8228 203.954 77.0655 203.527 76.4255C203.122 75.7642 202.546 75.1562 201.799 74.6015C201.053 74.0255 200.178 73.4388 199.175 72.8415C198.173 72.2228 197.234 71.5935 196.359 70.9535C195.485 70.3135 194.781 69.5775 194.247 68.7455C193.735 67.8922 193.479 66.8682 193.479 65.6735C193.479 64.4148 193.757 63.3802 194.311 62.5695C194.887 61.7375 195.634 61.1295 196.551 60.7455C197.469 60.3402 198.45 60.1375 199.495 60.1375Z" fill="white"/>
<path d="M90.9551 121V110.553C55.8854 105.103 46.5652 76.8513 46.2888 63.4069C46.2086 59.5007 46.2543 55.958 46.5998 54.6862C51.2425 23.3643 78.1045 11.6579 90.9551 9.71997V0C55.6366 10.4649 44.458 40.8178 43.2835 54.6862C42.945 58.6832 43.1875 62.9527 43.2835 64.497C45.6049 101.851 76.0318 117.73 90.9551 121Z" fill="white"/>
</svg>
